<?xml version="1.0" standalone="no"?>
<!DOCTYPE svg PUBLIC "-//W3C//DTD SVG 1.1//EN" "http://www.w3.org/Graphics/SVG/1.1/DTD/svg11.dtd" >
<svg xmlns="http://www.w3.org/2000/svg" xmlns:xlink="http://www.w3.org/1999/xlink" version="1.1" viewBox="0 -100 1000 1000">
  <g transform="matrix(1 0 0 -1 0 900)">
   <path fill="currentColor"
d="M244 0v2v25l3 31q3 30 16 54.5t47 27.5l35 3l38 4l72 7l85 3q22 0 49.5 -1t57.5 -4q34 0 71 -5t63 -8t39 -34q3 -8 8 -26t5 -39l1 -19v-18v-3h-590zM420 393q-20 -9 -33 -14q-3 -1 -37 -12l-2 -1l-21 -6l-20 -7q-7 -2 -17 -12l-11 -17l-2 -3l-1 -3l-13 -18q-6 -6 -17 -7
l-11 1l-11 2q-20 6 -39 21t-19 33q0 43 22 81q21 40 50 67q12 12 24 28q6 8 14 20q16 29 16 62q0 12 5 20l15 17l13 10l14 13l19 21q8 11 16 30l3 11l3 12v2l7 27q5 12 19 12l19 -19l19 -21l3 -5l4 -5q18 -24 40.5 -44t54.5 -20q12 0 46 -11.5t71 -40.5q45 -35 86 -105
q20 -34 30 -77.5t10 -100.5v-7v-6v-18q0 -12 2 -18v-64q0 -25 -17 -25h-1h-1h-6l-5 1l-118 12l-102 4l-84 -3l-72 -7l-38 -4l-35 -3q-7 0 -10 2q-3 3 -3 8l3 11l9 14l12 12l14 12l3 2l3 3l33 15q14 5 21 8t22 11q33 15 60 39t27 64l-1 9l-1 11q-2 7 -3 11l-5 12.5t-8 11.5
h-3l-3 -2l-3 -3q-24 -40 -59 -54z" />
  </g>

</svg>
