<?xml version="1.0" standalone="no"?>
<!DOCTYPE svg PUBLIC "-//W3C//DTD SVG 1.1//EN" "http://www.w3.org/Graphics/SVG/1.1/DTD/svg11.dtd" >
<svg xmlns="http://www.w3.org/2000/svg" xmlns:xlink="http://www.w3.org/1999/xlink" version="1.1" viewBox="0 -100 1000 1000">
  <g transform="matrix(1 0 0 -1 0 900)">
   <path fill="currentColor"
d="M257 0l-3 20l-1 19q0 42 16 70q9 16 17.5 26.5t20.5 21.5l6 5l7 5q20 16 39.5 25t21.5 13l-1 7v8l3 28l9 28q15 33 41.5 56.5t57.5 29.5l5 1h5l7 -1h7q27 -6 53 -30t41 -56l7 -21l4 -21l1 -7v-7v-8l-1 -7l21 -13q18 -8 43 -27l5 -4l6 -4q20 -17 37 -47t17 -72l-1 -19
l-3 -19h-488zM433 547q28 28 68 28q39 0 67 -28t28 -67t-28 -67t-67 -28t-67 27.5t-28 67.5q0 38 27 67z" />
  </g>

</svg>
