<?xml version="1.0" standalone="no"?>
<!DOCTYPE svg PUBLIC "-//W3C//DTD SVG 1.1//EN" "http://www.w3.org/Graphics/SVG/1.1/DTD/svg11.dtd" >
<svg xmlns="http://www.w3.org/2000/svg" xmlns:xlink="http://www.w3.org/1999/xlink" version="1.1" viewBox="0 -100 1000 1000">
  <g transform="matrix(1 0 0 -1 0 900)">
   <path fill="currentColor"
d="M877 0h-285q-21 0 -35 11l-21 25l-2 3l-8 13l-6 11l-10 11l-9 4q-8 -2 -10 -4l-8 -8l-9 -12l-9 -15l-2 -3q-9 -12 -25 -25q-16 -11 -39 -11h-274l-33 148h226q10 0 13 7l4 18v2v5l1 5q2 9 6.5 16t17.5 8h304q6 0 9 -7l4 -13v-6v-4v-3v-6q0 -10 2 -15q1 -6 8 -7h222z
M515 454l1 16q0 10 2 16l3 26l6 31l3 12l3 12q5 14 8.5 23t13 25.5t26.5 34.5q36 -6 68 -47.5t54 -92.5l13 -45l5 -39q0 -79 -14 -111q-12 -33 -30 -45q-8 -5 -19 -7l-15 -1h-2h-262h-2l-20 1q-10 0 -23 7q-19 10 -36.5 44.5t-17.5 111.5q0 61 25 106t54.5 77t54 50.5
t25.5 26.5l-2 13l-3 13l-1 3l-5 19l-2 17q0 25 15 45.5t50 20.5q23 0 40.5 -18.5t21.5 -42.5l1 -6v-6q0 -25 -10 -48l-21 -45l-6 -9l-4 -9l-24 -45q-11 -21 -14.5 -40.5t-5.5 -32t-3 -20.5v-41h49z" />
  </g>

</svg>
