<?xml version="1.0" standalone="no"?>
<!DOCTYPE svg PUBLIC "-//W3C//DTD SVG 1.1//EN" "http://www.w3.org/Graphics/SVG/1.1/DTD/svg11.dtd" >
<svg xmlns="http://www.w3.org/2000/svg" xmlns:xlink="http://www.w3.org/1999/xlink" version="1.1" viewBox="0 -100 1000 1000">
  <g transform="matrix(1 0 0 -1 0 900)">
   <path fill="currentColor"
d="M209 0v2v26q0 20 2.5 39.5t14.5 44.5t41 28l35 3l38 4l72 7l85 3q22 0 49.5 -1t57.5 -4q34 0 71 -5t63 -8t39 -34q3 -8 8 -26t5 -39l1 -19v-18v-3h-582zM775 517l-12 19l-4 25q0 27 21 49t50 22q27 0 49.5 -21.5t22.5 -49.5t-18.5 -47.5t-45.5 -24.5l-108 -293l-125 12
l-106 5l-85 -3l-72 -7l-38 -4l-35 -3l-106 294q-25 0 -45.5 21.5t-20.5 49.5q0 27 21.5 49.5t50.5 22.5q28 0 49.5 -21.5t21.5 -50.5v-3l-4 -16q-3 -10 -13 -24l103 -117l43 208q-21 0 -38.5 21.5t-17.5 48.5q0 32 23 54t53 22t53 -21.5t23 -54.5l-1 -7v-7q-3 -13 -11 -25.5
t-23 -21.5l71 -206l70 206q-13 10 -21.5 26.5t-8.5 34.5q0 32 23 54t53 22t53 -21.5t23 -54.5q0 -27 -14 -44t-38 -26l35 -208z" />
  </g>

</svg>
