<?xml version="1.0" standalone="no"?>
<!DOCTYPE svg PUBLIC "-//W3C//DTD SVG 1.1//EN" "http://www.w3.org/Graphics/SVG/1.1/DTD/svg11.dtd" >
<svg xmlns="http://www.w3.org/2000/svg" xmlns:xlink="http://www.w3.org/1999/xlink" version="1.1" viewBox="0 -150 1000 1000">
  <g transform="matrix(1 0 0 -1 0 850)">
   <path fill="currentColor"
d="M731 21q0 33 -26 48t-73 27l-23 5l-22 4l-41 2h-34l-57 -1h-33l-23 -4l-22 -3l-20 -4q-34 -7 -60 -23t-27 -51h461zM651 273l-36 213l-117 -209l-115 209l-38 -215l-103 105l-2 -3l81 -210l51 8l49 5l67 2l78 -3l85 -9l15 -3q10 0 16 -2l75 213l-2 2zM157 483
q6 -6 17 -6.5t17 6.5t8 18q0 9 -6 16t-19 8q-9 0 -16 -6t-8 -18q0 -10 7 -18zM808 483q6 -6 17 -7q9 0 16 7t9 18q0 9 -8 16q-5 7 -17 8q-9 0 -15 -6t-9 -18q0 -10 7 -18zM349 584q8 -6 20 -7t21 8t8.5 20t-7.5 19t-22 9q-11 0 -18 -7t-10 -21q0 -13 8 -21zM607 584
q8 -6 20 -8q13 0 20 8t9 21q0 12 -7 19t-22 9q-11 0 -18 -7t-10 -21q0 -13 8 -21z" />
  </g>

</svg>
