<?xml version="1.0" standalone="no"?>
<!DOCTYPE svg PUBLIC "-//W3C//DTD SVG 1.1//EN" "http://www.w3.org/Graphics/SVG/1.1/DTD/svg11.dtd" >
<svg xmlns="http://www.w3.org/2000/svg" xmlns:xlink="http://www.w3.org/1999/xlink" version="1.1" viewBox="0 -150 1000 1000">
  <g transform="matrix(1 0 0 -1 0 850)">
   <path fill="currentColor"
d="M737 21q0 37 -26 52t-73 24l-28 4l-44 3h-15q-9 0 -25 2l-28 1l-27 -1l-45 -3q-20 0 -32 -2l-26 -3l-13 -2q-33 -4 -59 -20t-27 -55h468zM477 350l-17 16l-22 29l-24 36q-24 35 -56 61t-83 26q-25 0 -40 -14t-25 -34l-8 -26l-2 -18q0 -46 19 -78t46 -67l22 -28l21 -28
l15 -30q6 -14 6 -30l43 8q17 3 36 2l83 3l43 -1l45 -3q26 0 49 -4q13 0 21 -1l26 -4q0 25 12 48t27 41l24 30q24 29 44 63t19 78q0 49 -28 71t-73 22q-49 0 -80 -27t-52 -60l-21 -34l-18 -28q-6 -11 -15 -17t-18.5 -6.5t-18.5 4.5zM479 699l-4 -21q0 -12 6 -33l14 -46l15 46
q6 20 6 33q0 16 -5 21q-3 6 -14.5 6t-17.5 -6z" />
  </g>

</svg>
