<?xml version="1.0" standalone="no"?>
<!DOCTYPE svg PUBLIC "-//W3C//DTD SVG 1.1//EN" "http://www.w3.org/Graphics/SVG/1.1/DTD/svg11.dtd" >
<svg xmlns="http://www.w3.org/2000/svg" xmlns:xlink="http://www.w3.org/1999/xlink" version="1.1" viewBox="0 -150 1000 1000">
  <g transform="matrix(1 0 0 -1 0 850)">
   <path fill="currentColor"
d="M722 21q0 34 -26 49t-73 27l-28 6l-36 3l-29 1h-24l-29 -1h-21l-63 -5q-8 -1 -15 -1l-13 -4q-34 -7 -60 -23t-27 -52h444zM633 363q-14 5 -38 10l-44 6l-26 2l-23 1q-27 0 -49 -1t-45 -5t-40 -13l-24 -196l75 8l88 3l85 -3q20 0 31 -1t35 -7zM566 524l-21 57l-23 4l-22 1
l-20 -2l-20 -3l-23 -57h-61l-23 55l-4 1h-4l-10 -2l-10 -3l-10 -4v-4q0 -34 2 -46t10 -35q13 -35 37 -47l74 10l62 4h27l27 -2q28 0 49 -5l19 -3l19 -4q22 12 31 40q4 13 7 27t4 34l1 16v15l-10 4l-12 3l-16 2l-23 -56h-57z" />
  </g>

</svg>
