<?xml version="1.0" standalone="no"?>
<!DOCTYPE svg PUBLIC "-//W3C//DTD SVG 1.1//EN" "http://www.w3.org/Graphics/SVG/1.1/DTD/svg11.dtd" >
<svg xmlns="http://www.w3.org/2000/svg" xmlns:xlink="http://www.w3.org/1999/xlink" version="1.1" viewBox="0 -100 1000 1000">
  <g transform="matrix(1 0 0 -1 0 900)">
   <path fill="currentColor"
d="M227 0v18l1 18q0 24 6.5 47.5t19.5 48.5q21 45 83 69q0 30 26 53l58 42l6 4l6 4l50 37q22 19 22 44l-3 15q-3 6 -16 7l-9 -3l-7 -7l-8 -10l-7 -10l-12 -14l-15 -11l-18 -8q-2 -1 -19 -6l-32 -10q-16 -4 -26.5 -10.5t-12 -17t-2.5 -11.5l-3 -6q-8 -8 -28 -19
q-19 -8 -40 -8q-39 0 -62 29t-26 64v6q0 38 18 70q10 18 19 31.5t22 28.5l17 21l16 22q8 11 10 15q3 6 7.5 16t6.5 17.5t2 18.5q0 16 11 27l28 25l4 3l5 3l31 27q16 16 16 33l2 14q0 11 2.5 22t9 22t20.5 14q13 -7 27 -23l29 -33q15 -21 32.5 -37.5t36.5 -21.5
q3 -1 16.5 -4.5t31.5 -9.5q39 -11 84.5 -42.5t87.5 -94t42 -167.5q0 -21 -1 -39t-4 -34l-12 -58l-4 -11l-3 -11q54 -35 63 -81t9 -101v-9v-8h-614zM767 71q0 33 -27 48q-13 8 -27 13t-40 13l-3 1l-21 5l-18 3l-46 3h-39h-9h-8h-4h-4l-39 -1l-52 -3l-22 -3l-20 -4
q-35 -9 -61 -24.5t-26 -50.5h466zM674 504q-48 63 -106 93q-18 10 -38 16t-39 6q-6 0 -15 9l-17 20l-2 2l-19 24q-8 8 -15 10l-4 -2q-3 -21 -14 -36t-24 -26l-26 -20q-10 -7 -13 -16q-10 -35 -22 -60l-24 -45q-17 -26 -32.5 -44.5t-23.5 -33.5l-8 -16l-2 -15v-6l1 -6
q2 -13 8 -22t18 -9l9 1l7 4l8 8l13 14l2 2l4 3l17 10l22 10l32 12l18 5q7 1 9 2l8 8l11 14l13 17l24 28q15 13 32 13h6q24 0 44 -18t32 -41l6 -16l2 -15q0 -48 -22.5 -72.5t-50.5 -42.5l-25 -13q-14 -5 -21 -11l-20 -13q-5 -5 -7 -16l44 5q27 3 76 3l82 -3q12 0 23.5 -0.5
t42.5 -4.5q12 19 20 61q2 13 3 40.5t1 43.5q0 74 -48 139z" />
  </g>

</svg>
