<?xml version="1.0" standalone="no"?>
<!DOCTYPE svg PUBLIC "-//W3C//DTD SVG 1.1//EN" "http://www.w3.org/Graphics/SVG/1.1/DTD/svg11.dtd" >
<svg xmlns="http://www.w3.org/2000/svg" xmlns:xlink="http://www.w3.org/1999/xlink" version="1.1" viewBox="0 -100 1000 1000">
  <g transform="matrix(1 0 0 -1 0 900)">
   <path fill="currentColor"
d="M204 0q0 66 8.5 111.5t58.5 88.5l32 248l-7 8l-7 9l-16 21l-13 24q-1 5 -2 6l-2 7q-6 17 -9 35l-2 41l1 35l5 39q29 14 59 20l53 7l21 -46h47l12 59l30 3l30 1h10l10 -1l20 -1l20 -2l9 -59h45l18 45l10 -1h10l49 -9q25 -5 45 -16l4 -23l1 -28l-1 -17v-18l-4 -31
q-1 -9 -1 -18q-3 -7 -4 -10l-2 -4l-8 -19l-8 -15l-13 -20l-16 -22l33 -248q45 -33 55.5 -86t10.5 -114h-592zM722 71q0 34 -26.5 48.5t-72.5 27.5l-28 6l-36 3l-29 1h-24l-29 -1h-21t-26 -2l-37 -3q-8 -1 -15 -1q-4 -1 -13 -4q-34 -7 -60.5 -23t-26.5 -52h444zM633 413
q-14 5 -38 10l-44 6l-26 2l-23 1q-27 0 -49 -1t-45.5 -5t-39.5 -13l-24 -196l75 8l88 3l85 -3q20 0 31 -1.5t35 -6.5zM566 574l-21 57l-23 4l-22 1l-20 -2l-20 -3l-23 -57h-61l-23 55l-4 1h-4l-10 -2l-10 -3l-5 -2l-5 -2v-4q0 -34 2 -46.5t10 -34.5q13 -35 37 -47l74 10
l62 4h26.5t27.5 -2q28 0 49 -5l19 -3l19 -4q22 12 31 40q4 13 6.5 27t4.5 34l1 16v15l-10 4l-12 3l-8 1l-8 1l-23 -56h-57z" />
  </g>

</svg>
