<?xml version="1.0" standalone="no"?>
<!DOCTYPE svg PUBLIC "-//W3C//DTD SVG 1.1//EN" "http://www.w3.org/Graphics/SVG/1.1/DTD/svg11.dtd" >
<svg xmlns="http://www.w3.org/2000/svg" xmlns:xlink="http://www.w3.org/1999/xlink" version="1.1" viewBox="0 -100 1000 1000">
  <g transform="matrix(1 0 0 -1 0 900)">
   <path fill="currentColor"
d="M196 0q0 45 1.5 62t7.5 53t56 75l-91 289q-29 0 -48 21t-19 49q0 31 21 52t50 21q30 0 51 -21.5t21 -51.5l-3 -18q-2 -9 -11 -20l79 -84l30 153q-25 11 -39 31t-14 45q0 33 23.5 56.5t57.5 23.5q32 0 57 -23.5t25 -56.5q0 -19 -9.5 -36.5t-24.5 -29.5l81 -151l82 151
q-10 7 -17.5 17.5t-12.5 24.5l-3 13l-1 11q0 32 24 56t57 24q32 0 57 -23.5t25 -56.5q0 -24 -14.5 -45t-38.5 -31l28 -154l80 85l-7 18l-3 20q0 31 21 52t50 21q30 0 51 -21.5t21 -51.5q0 -28 -18.5 -47.5t-47.5 -22.5l-93 -287q49 -37 58 -85t9 -107h-609zM731 71
q0 33 -26.5 47.5t-72.5 27.5l-23 5l-22 4l-41 2h-34h-8h-6h-4l-39 -1h-33q-16 -3 -23 -4l-22 -3l-20 -4q-34 -7 -60.5 -23t-26.5 -51h461zM651 323l-36 213l-117 -209l-115 209l-38 -215l-103 105l-2 -3l81 -210l51 8l49 5l33 1l34 1l78 -3l85 -9l15 -3q10 0 16 -2l75 213
l-2 2zM157 533q6 -6 17 -7q11 0 17 7t8 18q0 9 -6 15.5t-19 8.5q-9 0 -16 -6.5t-8 -17.5q0 -10 7 -18zM808 533q6 -6 17 -7q9 0 16 6.5t9 18.5q0 9 -8 16q-5 7 -17 8q-9 0 -15.5 -6.5t-8.5 -17.5q0 -10 7 -18zM349 634q8 -6 20 -8q12 0 20.5 8.5t8.5 20.5q0 11 -7.5 19
t-21.5 9q-11 0 -18.5 -7t-9.5 -21q0 -13 8 -21zM607 634q8 -6 20 -8q13 0 21 8q6 8 8 21q0 12 -7 19t-22 9q-11 0 -18.5 -7t-9.5 -21q0 -13 8 -21z" />
  </g>

</svg>
