<?xml version="1.0" standalone="no"?>
<!DOCTYPE svg PUBLIC "-//W3C//DTD SVG 1.1//EN" "http://www.w3.org/Graphics/SVG/1.1/DTD/svg11.dtd" >
<svg xmlns="http://www.w3.org/2000/svg" xmlns:xlink="http://www.w3.org/1999/xlink" version="1.1" viewBox="0 -100 1000 1000">
  <g transform="matrix(1 0 0 -1 0 900)">
   <path fill="currentColor"
d="M240 0q0 71 26.5 125t78.5 91q12 8 15 23l4 32v5v4l1 18q0 9 4 16l9 14l14 14l2 2l18 20q9 9 9 22q0 10 -7 21l-15 27l-16 33q-6 18 -6 37q0 47 37.5 81.5t86.5 34.5q48 0 85.5 -34.5t37.5 -81.5q0 -17 -6 -36.5t-16 -33.5l-15 -27q-1 -2 -4 -10.5t-3 -10.5q0 -13 8 -22
l19 -20l2 -2l14 -14q7 -6 9 -14l4 -18l1 -23v-5v-4q0 -15 4 -27.5t15 -20.5q49 -34 77 -89q14 -28 21 -58t7 -69h-521zM690 71q0 28 -16 48t-37 36l-25 19l-19 17q-5 5 -8 13l-2 14v8l2 10v10l1 11q0 13 -1.5 22.5t-9.5 22.5q-3 10 -11 15l-14 14l-1 1q-12 9 -21 21t-9 33
q0 11 2 16l6 13l4 7l4 8l12 26q6 15 6 42q0 25 -14 38q-4 3 -13.5 8t-23.5 5q-25 0 -39.5 -13t-14.5 -38q0 -26 4.5 -40.5t10.5 -23.5l2 -4l4 -8l5 -7l6 -13l2 -16q0 -21 -9 -33l-20 -21l-2 -2l-14 -13l-10 -15l-10 -26l-2 -22v-10l2 -10v-9l1 -8l-3 -14q-2 -7 -7 -12
l-19 -17l-25 -19q-18 -14 -37 -36q-16 -21 -16 -48h379z" />
  </g>

</svg>
