<?xml version="1.0" standalone="no"?>
<!DOCTYPE svg PUBLIC "-//W3C//DTD SVG 1.1//EN" "http://www.w3.org/Graphics/SVG/1.1/DTD/svg11.dtd" >
<svg xmlns="http://www.w3.org/2000/svg" xmlns:xlink="http://www.w3.org/1999/xlink" version="1.1" viewBox="0 -100 1000 1000">
  <g transform="matrix(1 0 0 -1 0 900)">
   <path fill="currentColor"
d="M877 0h-291q-16 0 -29 9t-23 22l-9 11l-8 10l-8 6q-3 3 -9 3l-6 -1l-4 -2q-5 -3 -13 -12l-14 -15q-10 -12 -26.5 -21.5t-44.5 -9.5h-269l-42 200h264h4h5l12 1q3 1 5 6q0 8 -15 22l-32 37q-19 24 -33 57t-14 80q0 59 21 101.5t48 74t48.5 49.5t22.5 25l-2 9l-3 14l-4 17
l-1 23q0 33 29 60.5t64 27.5h5h5q29 -3 55.5 -31t26.5 -68l-1 -14q0 -8 -2 -12l-4 -11l-6 -12l20 -17l19 -17q52 -47 78.5 -98t26.5 -122q0 -38 -14.5 -70.5t-32.5 -56.5l-33 -42q-12 -15 -14 -26q4 -6 6 -6l17 -1h5h262zM833 129h-217q-26 0 -46 17.5t-20 42.5l1 10l3 11
q6 16 19 35l28 37q6 8 17 25q8 12 18 29q16 30 16 65q0 64 -24.5 115t-77.5 80q-26 -55 -32 -110l-5 -85v-8v-6h-67v7q0 39 1.5 57.5t8.5 46.5q14 51 31 92l28 64q11 26 13 35v5q0 18 -8 31q-6 14 -24 14h-5q-9 -1 -19 -11t-10 -25l1 -19l4 -17v-4l1 -3l2 -13l1 -13
q0 -9 -4 -16l-11 -14l-22 -19q-13 -10 -24 -22q-23 -22 -42.5 -63t-19.5 -112q0 -33 15 -59.5t35 -50.5l18 -24l17 -23l10 -21l4 -22q0 -30 -18.5 -44.5t-45.5 -14.5h-216l12 -58h226q17 0 29 9l20 22l3 3l18 19q9 9 25 9q10 0 21 -9l20 -18l3 -4l22 -22q11 -9 24 -9h230z
" />
  </g>

</svg>
