<?xml version="1.0" standalone="no"?>
<!DOCTYPE svg PUBLIC "-//W3C//DTD SVG 1.1//EN" "http://www.w3.org/Graphics/SVG/1.1/DTD/svg11.dtd" >
<svg xmlns="http://www.w3.org/2000/svg" xmlns:xlink="http://www.w3.org/1999/xlink" version="1.1" viewBox="0 -100 1000 1000">
  <g transform="matrix(1 0 0 -1 0 900)">
   <path fill="currentColor"
d="M195 0q0 45 1.5 62t6.5 43q9 46 58 85q0 14 -1 22.5t-6 18.5q-8 19 -22 36l-18 20l-19 23q-21 25 -43 63q-10 19 -16.5 42t-6.5 49v13l1 13q8 57 47 103t99 46t96 -26q37 -24 62 -56q21 -27 37 -57q13 -24 25 -25q7 0 19.5 25.5t36.5 56.5t62 56.5t100 25.5
q81 0 119.5 -53.5t38.5 -129.5q0 -42 -20 -76q-11 -19 -20 -32.5t-24 -31.5l-30 -39l-23 -36l-8 -21l-3 -21v-5l1 -6q49 -34 57.5 -83t8.5 -105h-616zM737 71q0 37 -26.5 52t-72.5 24l-28 4l-44 3h-15q-9 0 -25 2l-28 1l-27 -1l-45 -3q-20 0 -32 -2l-26 -3l-8 -1l-5 -1
q-33 -4 -59.5 -20t-26.5 -55h468zM477 400l-17 16l-22 29l-24 36q-24 35 -56 60q-32 27 -83 27q-25 0 -40 -14t-25 -34l-8 -26l-2 -18q0 -46 19 -78.5t46 -66.5l22 -28l21 -28l15 -30q6 -14 6 -30q26 5 42.5 7.5t36.5 2.5l83 3l43 -1l45 -3q26 0 49 -4q13 0 21 -1t26 -4
q0 25 12 47.5t27 41.5l12 15l12 15q24 29 43.5 62.5t19.5 78.5q0 49 -28 71t-73 22q-49 0 -80 -27t-52 -60l-21 -34l-18 -28q-6 -11 -15 -17.5t-18 -6.5q-10 0 -19 5zM550 794q21 -18 21 -47q0 -11 -8 -39.5t-22 -58.5l-5 -14l-6 -14l-19 -43l-15 -28q-7 9 -15 26l-17 41
l-7 16l-6 17l-19 57q-1 5 -4 20.5t-4 19.5q0 26 21 47q22 19 55 19q30 0 50 -19zM479 749l-4 -21q0 -12 6 -33l14 -46l15 46q6 20 6 33q0 16 -5 21q-3 6 -15 6q-11 0 -17 -6z" />
  </g>

</svg>
